<svg width="24" height="24" viewBox="0 0 24 24" fill="none" xmlns="http://www.w3.org/2000/svg">
<path d="M20.3333 4H18.6667V3.33333C18.6667 2.97971 18.5262 2.64057 18.2761 2.39052C18.0261 2.14048 17.687 2 17.3333 2C16.9797 2 16.6406 2.14048 16.3905 2.39052C16.1405 2.64057 16 2.97971 16 3.33333V4H13.3333V3.33333C13.3333 2.97971 13.1929 2.64057 12.9428 2.39052C12.6928 2.14048 12.3536 2 12 2C11.6464 2 11.3072 2.14048 11.0572 2.39052C10.8071 2.64057 10.6667 2.97971 10.6667 3.33333V4H8V3.33333C8 2.97971 7.85952 2.64057 7.60948 2.39052C7.35943 2.14048 7.02029 2 6.66667 2C6.31305 2 5.97391 2.14048 5.72386 2.39052C5.47381 2.64057 5.33333 2.97971 5.33333 3.33333V4H3.66667C3.22464 4 2.80072 4.17559 2.48816 4.48816C2.17559 4.80072 2 5.22464 2 5.66667V19C2 19.442 2.17559 19.8659 2.48816 20.1785C2.80072 20.4911 3.22464 20.6667 3.66667 20.6667H13C13.0884 20.6667 13.1732 20.6315 13.2357 20.569C13.2982 20.5065 13.3333 20.4217 13.3333 20.3333C13.3333 20.2449 13.2982 20.1601 13.2357 20.0976C13.1732 20.0351 13.0884 20 13 20H3.66667C3.40169 19.9992 3.1478 19.8936 2.96043 19.7062C2.77307 19.5189 2.66746 19.265 2.66667 19V8.66667H21.3333V14.3333C21.3333 14.4217 21.3685 14.5065 21.431 14.569C21.4935 14.6315 21.5783 14.6667 21.6667 14.6667C21.7551 14.6667 21.8399 14.6315 21.9024 14.569C21.9649 14.5065 22 14.4217 22 14.3333V5.66667C22 5.22464 21.8244 4.80072 21.5118 4.48816C21.1993 4.17559 20.7754 4 20.3333 4ZM16.6667 3.33333C16.6667 3.15652 16.7369 2.98695 16.8619 2.86193C16.987 2.7369 17.1565 2.66667 17.3333 2.66667C17.5101 2.66667 17.6797 2.7369 17.8047 2.86193C17.9298 2.98695 18 3.15652 18 3.33333V5.33333C18 5.51014 17.9298 5.67971 17.8047 5.80474C17.6797 5.92976 17.5101 6 17.3333 6C17.1565 6 16.987 5.92976 16.8619 5.80474C16.7369 5.67971 16.6667 5.51014 16.6667 5.33333V3.33333ZM11.3333 3.33333C11.3333 3.15652 11.4036 2.98695 11.5286 2.86193C11.6536 2.7369 11.8232 2.66667 12 2.66667C12.1768 2.66667 12.3464 2.7369 12.4714 2.86193C12.5964 2.98695 12.6667 3.15652 12.6667 3.33333V5.33333C12.6667 5.51014 12.5964 5.67971 12.4714 5.80474C12.3464 5.92976 12.1768 6 12 6C11.8232 6 11.6536 5.92976 11.5286 5.80474C11.4036 5.67971 11.3333 5.51014 11.3333 5.33333V3.33333ZM6 3.33333C6 3.15652 6.07024 2.98695 6.19526 2.86193C6.32029 2.7369 6.48986 2.66667 6.66667 2.66667C6.84348 2.66667 7.01305 2.7369 7.13807 2.86193C7.2631 2.98695 7.33333 3.15652 7.33333 3.33333V5.33333C7.33333 5.51014 7.2631 5.67971 7.13807 5.80474C7.01305 5.92976 6.84348 6 6.66667 6C6.48986 6 6.32029 5.92976 6.19526 5.80474C6.07024 5.67971 6 5.51014 6 5.33333V3.33333ZM21.3333 8H2.66667V5.66667C2.66746 5.40169 2.77307 5.1478 2.96043 4.96043C3.1478 4.77307 3.40169 4.66746 3.66667 4.66667H5.33333V5.33333C5.33333 5.68696 5.47381 6.02609 5.72386 6.27614C5.97391 6.52619 6.31305 6.66667 6.66667 6.66667C7.02029 6.66667 7.35943 6.52619 7.60948 6.27614C7.85952 6.02609 8 5.68696 8 5.33333V4.66667H10.6667V5.33333C10.6667 5.68696 10.8071 6.02609 11.0572 6.27614C11.3072 6.52619 11.6464 6.66667 12 6.66667C12.3536 6.66667 12.6928 6.52619 12.9428 6.27614C13.1929 6.02609 13.3333 5.68696 13.3333 5.33333V4.66667H16V5.33333C16 5.68696 16.1405 6.02609 16.3905 6.27614C16.6406 6.52619 16.9797 6.66667 17.3333 6.66667C17.687 6.66667 18.0261 6.52619 18.2761 6.27614C18.5262 6.02609 18.6667 5.68696 18.6667 5.33333V4.66667H20.3333C20.5983 4.66746 20.8522 4.77307 21.0396 4.96043C21.2269 5.1478 21.3325 5.40169 21.3333 5.66667V8Z" fill="black"/>
<path d="M11.3333 11.0002C11.3333 10.8234 11.2631 10.6538 11.1381 10.5288C11.013 10.4037 10.8435 10.3335 10.6667 10.3335H9.33332C9.15651 10.3335 8.98694 10.4037 8.86192 10.5288C8.73689 10.6538 8.66666 10.8234 8.66666 11.0002V12.0002C8.66666 12.177 8.73689 12.3465 8.86192 12.4716C8.98694 12.5966 9.15651 12.6668 9.33332 12.6668H10.6667C10.8435 12.6668 11.013 12.5966 11.1381 12.4716C11.2631 12.3465 11.3333 12.177 11.3333 12.0002V11.0002ZM9.33332 12.0002V11.0002H10.6667V12.0002H9.33332Z" fill="black"/>
<path d="M7.33332 11.0002C7.33332 10.8234 7.26309 10.6538 7.13806 10.5288C7.01304 10.4037 6.84347 10.3335 6.66666 10.3335H5.33332C5.15651 10.3335 4.98694 10.4037 4.86192 10.5288C4.73689 10.6538 4.66666 10.8234 4.66666 11.0002V12.0002C4.66666 12.177 4.73689 12.3465 4.86192 12.4716C4.98694 12.5966 5.15651 12.6668 5.33332 12.6668H6.66666C6.84347 12.6668 7.01304 12.5966 7.13806 12.4716C7.26309 12.3465 7.33332 12.177 7.33332 12.0002V11.0002ZM5.33332 12.0002V11.0002H6.66666V12.0002H5.33332Z" fill="black"/>
<path d="M18.6667 12.6668C18.8435 12.6668 19.013 12.5966 19.1381 12.4716C19.2631 12.3465 19.3333 12.177 19.3333 12.0002V11.0002C19.3333 10.8234 19.2631 10.6538 19.1381 10.5288C19.013 10.4037 18.8435 10.3335 18.6667 10.3335H17.3333C17.1565 10.3335 16.9869 10.4037 16.8619 10.5288C16.7369 10.6538 16.6667 10.8234 16.6667 11.0002V12.0002C16.6667 12.177 16.7369 12.3465 16.8619 12.4716C16.9869 12.5966 17.1565 12.6668 17.3333 12.6668H18.6667ZM17.3333 11.0002H18.6667V12.0002H17.3333V11.0002Z" fill="black"/>
<path d="M11.3333 14.0002C11.3333 13.8234 11.2631 13.6538 11.1381 13.5288C11.013 13.4037 10.8435 13.3335 10.6667 13.3335H9.33332C9.15651 13.3335 8.98694 13.4037 8.86192 13.5288C8.73689 13.6538 8.66666 13.8234 8.66666 14.0002V15.0002C8.66666 15.177 8.73689 15.3465 8.86192 15.4716C8.98694 15.5966 9.15651 15.6668 9.33332 15.6668H10.6667C10.8435 15.6668 11.013 15.5966 11.1381 15.4716C11.2631 15.3465 11.3333 15.177 11.3333 15.0002V14.0002ZM9.33332 15.0002V14.0002H10.6667V15.0002H9.33332Z" fill="black"/>
<path d="M7.33332 14.0002C7.33332 13.8234 7.26309 13.6538 7.13806 13.5288C7.01304 13.4037 6.84347 13.3335 6.66666 13.3335H5.33332C5.15651 13.3335 4.98694 13.4037 4.86192 13.5288C4.73689 13.6538 4.66666 13.8234 4.66666 14.0002V15.0002C4.66666 15.177 4.73689 15.3465 4.86192 15.4716C4.98694 15.5966 5.15651 15.6668 5.33332 15.6668H6.66666C6.84347 15.6668 7.01304 15.5966 7.13806 15.4716C7.26309 15.3465 7.33332 15.177 7.33332 15.0002V14.0002ZM5.33332 15.0002V14.0002H6.66666V15.0002H5.33332Z" fill="black"/>
<path d="M10.6667 16.3335H9.33332C9.15651 16.3335 8.98694 16.4037 8.86192 16.5288C8.73689 16.6538 8.66666 16.8234 8.66666 17.0002V18.0002C8.66666 18.177 8.73689 18.3465 8.86192 18.4716C8.98694 18.5966 9.15651 18.6668 9.33332 18.6668H10.6667C10.8435 18.6668 11.013 18.5966 11.1381 18.4716C11.2631 18.3465 11.3333 18.177 11.3333 18.0002V17.0002C11.3333 16.8234 11.2631 16.6538 11.1381 16.5288C11.013 16.4037 10.8435 16.3335 10.6667 16.3335ZM9.33332 18.0002V17.0002H10.6667V18.0002H9.33332Z" fill="black"/>
<path d="M13.3333 12.6668H14.6667C14.8435 12.6668 15.013 12.5966 15.1381 12.4716C15.2631 12.3465 15.3333 12.177 15.3333 12.0002V11.0002C15.3333 10.8234 15.2631 10.6538 15.1381 10.5288C15.013 10.4037 14.8435 10.3335 14.6667 10.3335H13.3333C13.1565 10.3335 12.9869 10.4037 12.8619 10.5288C12.7369 10.6538 12.6667 10.8234 12.6667 11.0002V12.0002C12.6667 12.177 12.7369 12.3465 12.8619 12.4716C12.9869 12.5966 13.1565 12.6668 13.3333 12.6668ZM13.3333 11.0002H14.6667V12.0002H13.3333V11.0002Z" fill="black"/>
<path d="M12.6667 15.0002C12.6667 15.177 12.7369 15.3465 12.8619 15.4716C12.9869 15.5966 13.1565 15.6668 13.3333 15.6668C13.4217 15.6668 13.5065 15.6317 13.569 15.5692C13.6315 15.5067 13.6667 15.4219 13.6667 15.3335C13.6667 15.2451 13.6315 15.1603 13.569 15.0978C13.5065 15.0353 13.4217 15.0002 13.3333 15.0002V14.0002H14.6667C14.7551 14.0002 14.8398 13.965 14.9024 13.9025C14.9649 13.84 15 13.7552 15 13.6668C15 13.5784 14.9649 13.4936 14.9024 13.4311C14.8398 13.3686 14.7551 13.3335 14.6667 13.3335H13.3333C13.1565 13.3335 12.9869 13.4037 12.8619 13.5288C12.7369 13.6538 12.6667 13.8234 12.6667 14.0002V15.0002Z" fill="black"/>
<path d="M6.66666 16.3335H5.33332C5.15651 16.3335 4.98694 16.4037 4.86192 16.5288C4.73689 16.6538 4.66666 16.8234 4.66666 17.0002V18.0002C4.66666 18.177 4.73689 18.3465 4.86192 18.4716C4.98694 18.5966 5.15651 18.6668 5.33332 18.6668H6.66666C6.84347 18.6668 7.01304 18.5966 7.13806 18.4716C7.26309 18.3465 7.33332 18.177 7.33332 18.0002V17.0002C7.33332 16.8234 7.26309 16.6538 7.13806 16.5288C7.01304 16.4037 6.84347 16.3335 6.66666 16.3335ZM5.33332 18.0002V17.0002H6.66666V18.0002H5.33332Z" fill="black"/>
<path d="M17.6666 13.3335C16.8096 13.3335 15.9718 13.5876 15.2592 14.0638C14.5466 14.5399 13.9912 15.2167 13.6632 16.0085C13.3352 16.8003 13.2494 17.6716 13.4166 18.5122C13.5838 19.3528 13.9965 20.1249 14.6025 20.731C15.2085 21.337 15.9807 21.7497 16.8213 21.9169C17.6618 22.0841 18.5331 21.9983 19.3249 21.6703C20.1168 21.3423 20.7935 20.7869 21.2697 20.0743C21.7458 19.3617 22 18.5239 22 17.6668C21.9987 16.518 21.5417 15.4165 20.7293 14.6042C19.9169 13.7918 18.8155 13.3348 17.6666 13.3335ZM17.6666 21.3335C16.9415 21.3335 16.2325 21.1184 15.6296 20.7156C15.0266 20.3127 14.5566 19.74 14.2791 19.07C14.0016 18.4 13.929 17.6628 14.0704 16.9515C14.2119 16.2402 14.5611 15.5869 15.0739 15.0741C15.5867 14.5613 16.2401 14.2121 16.9513 14.0706C17.6626 13.9291 18.3998 14.0018 19.0698 14.2793C19.7398 14.5568 20.3125 15.0268 20.7154 15.6297C21.1183 16.2327 21.3333 16.9416 21.3333 17.6668C21.3322 18.6389 20.9455 19.5709 20.2581 20.2583C19.5707 20.9457 18.6388 21.3323 17.6666 21.3335Z" fill="black"/>
<path d="M19.5926 16.2694L17 18.862L15.8216 17.6834C15.7588 17.6226 15.6746 17.589 15.5872 17.5898C15.4998 17.5906 15.4162 17.6256 15.3544 17.6874C15.2926 17.7492 15.2575 17.8328 15.2568 17.9202C15.256 18.0076 15.2896 18.0918 15.3503 18.1547L16.7643 19.569C16.8268 19.6315 16.9116 19.6666 17 19.6666C17.0884 19.6666 17.1731 19.6315 17.2356 19.569L20.064 16.7407C20.1247 16.6778 20.1583 16.5936 20.1575 16.5062C20.1568 16.4188 20.1217 16.3352 20.0599 16.2734C19.9981 16.2116 19.9145 16.1766 19.8271 16.1758C19.7397 16.175 19.6555 16.2086 19.5926 16.2694Z" fill="black"/>
</svg>
