<svg width="24" height="24" viewBox="0 0 24 24" fill="none" xmlns="http://www.w3.org/2000/svg">
<path d="M8.79761 6.61376H21.3064L14.4733 11.9796C14.3285 12.0932 14.1563 12.1487 14 12.1639C13.8427 12.1484 13.6699 12.093 13.5235 11.9796L8.64027 8.14363C8.58854 8.10203 8.53014 8.0703 8.46587 8.05056C8.69574 7.7263 8.82694 7.33403 8.82001 6.91136C8.81867 6.81456 8.81014 6.71483 8.79761 6.61376ZM5.61654 3.16283C5.63227 3.1655 5.65814 3.17536 5.71441 3.2015C5.82561 3.2543 6.00241 3.3903 6.17547 3.5799C6.52401 3.95963 6.87227 4.53483 7.05307 4.91456C7.05867 4.92576 7.06454 4.93803 7.06987 4.95056C7.58294 5.83083 7.80427 6.50416 7.81094 6.92656C7.81814 7.35083 7.70427 7.5335 7.34454 7.74016L6.41654 8.2751C5.81201 8.6231 5.52641 9.24683 5.45547 9.8287C5.38427 10.4108 5.48907 10.9764 5.74801 11.4236L8.03867 15.3716C8.29814 15.8186 8.74107 16.1924 9.28267 16.422C9.82481 16.6522 10.5104 16.7172 11.1149 16.37L12.0429 15.8362C12.4024 15.63 12.6197 15.6258 12.9848 15.8428C13.3509 16.0604 13.8264 16.586 14.3373 17.4668C14.3445 17.4799 14.3515 17.4908 14.3597 17.5034C14.5992 17.8487 14.9253 18.4346 15.0827 18.9252C15.1608 19.169 15.1915 19.3892 15.1816 19.5111C15.1707 19.6335 15.168 19.621 15.1357 19.6402L14.4296 20.045C12.6557 20.8143 11.0299 20.6407 9.57681 19.8871C8.12107 19.1303 6.85574 17.7636 5.97361 16.1591C5.97067 16.1559 5.96934 16.1519 5.96694 16.1498L4.03467 12.8196C4.03147 12.8164 4.03014 12.8135 4.02747 12.8092C3.07147 11.2466 2.51441 9.47243 2.58427 7.84016C2.65414 6.2103 3.31547 4.72443 4.87334 3.58123L5.57974 3.17776C5.59601 3.16843 5.60134 3.16123 5.61654 3.16283ZM5.62374 2.17056C5.43681 2.16763 5.24614 2.20683 5.07467 2.3063L4.32774 2.7359C4.31094 2.7455 4.29547 2.75536 4.28027 2.76496C2.48321 4.08016 1.65574 5.9111 1.57494 7.7983C1.49414 9.6847 2.12401 11.6316 3.16454 13.3338L5.09041 16.6524L5.08587 16.6426C6.04721 18.3895 7.42481 19.905 9.10827 20.778C10.7925 21.6524 12.7989 21.8551 14.8427 20.9639C14.8595 20.9567 14.8765 20.9487 14.8917 20.9394L15.6397 20.5098C15.9856 20.313 16.1595 19.93 16.1877 19.5956C16.2168 19.2623 16.1488 18.9378 16.0456 18.618C15.8435 17.9858 15.4909 17.3716 15.1997 16.9503C14.6496 16.0039 14.1184 15.3471 13.5045 14.9799C12.8859 14.6111 12.1432 14.6164 11.5373 14.9647L10.6093 15.4996C10.3352 15.6575 10.0147 15.6391 9.67734 15.4964C9.34161 15.3538 9.03067 15.0684 8.91521 14.8684L6.62454 10.9207C6.50881 10.7196 6.41414 10.3095 6.45894 9.9479C6.50214 9.58736 6.64854 9.30496 6.92294 9.14683L7.82454 8.62843C7.84801 8.74923 7.91627 8.85883 8.01521 8.93243L12.8987 12.7692C13.2163 13.0188 13.5925 13.1578 13.9715 13.1796C13.9907 13.1807 14.0104 13.1807 14.0299 13.1796C14.4091 13.1578 14.7835 13.0186 15.1013 12.7692L21.8272 7.4855V16.2146C21.8272 16.3474 21.6757 16.5223 21.3787 16.5223H16.7224C16.4421 16.5207 16.2152 16.7468 16.2152 17.0255C16.2152 17.3036 16.4424 17.5298 16.7224 17.5282H21.3787C22.1397 17.5282 22.8392 16.978 22.8392 16.2146V6.9215C22.8392 6.1575 22.1397 5.60763 21.3787 5.60763H8.52054C8.37814 5.25163 8.19014 4.8743 7.95334 4.46416C7.73174 4.00283 7.37227 3.39296 6.92241 2.90256C6.69521 2.65403 6.45014 2.43376 6.14374 2.29136V2.2927C5.99147 2.2207 5.81041 2.17456 5.62374 2.17056Z" fill="black"/>
</svg>
