<svg width="24" height="24" viewBox="0 0 24 24" fill="none" xmlns="http://www.w3.org/2000/svg">
<g clip-path="url(#clip0_48_498)">
<path fill-rule="evenodd" clip-rule="evenodd" d="M5.86691 2.14894C5.76648 1.97118 5.82608 1.74465 6.00003 1.64136C6.17398 1.53901 6.39632 1.60004 6.49676 1.77781L7.03095 2.72255C7.17135 2.97096 6.99398 3.27956 6.71638 3.27956C6.59061 3.27956 6.46837 3.21319 6.401 3.09402L5.86691 2.14894ZM1.6077 6.12784C1.70813 5.9498 1.93037 5.88904 2.10443 5.99173L3.02965 6.53718C3.35101 6.72672 3.21725 7.23002 2.84749 7.23002C2.78571 7.23002 2.72324 7.21408 2.66603 7.1806L1.74081 6.63486C1.56686 6.53213 1.50727 6.30499 1.6077 6.12784ZM24 12.2553C24 12.4607 23.8372 12.6268 23.6364 12.6268H22.568C22.3672 12.6268 22.2044 12.4607 22.2044 12.2553C22.2044 12.0501 22.3672 11.8842 22.568 11.8842H23.6364C23.8372 11.8842 24 12.0501 24 12.2553ZM1.43185 12.6268H0.363617C0.162804 12.6268 0 12.4607 0 12.2553C0 12.0501 0.162804 11.8842 0.363617 11.8842H1.43185C1.63271 11.8842 1.79557 12.0501 1.79557 12.2553C1.79563 12.4607 1.63271 12.6268 1.43185 12.6268ZM20.8373 7.04443C20.7369 6.867 20.7963 6.63981 20.9703 6.53718L21.8956 5.99173C22.0695 5.8891 22.2919 5.9498 22.3924 6.12784C22.4927 6.30499 22.4331 6.53213 22.2592 6.63481L21.334 7.18054C21.1626 7.28128 20.9389 7.22419 20.8373 7.04443ZM11.6363 1.46238V0.371467C11.6363 0.16588 11.7991 0 12 0C12.2007 0 12.3636 0.165824 12.3636 0.371467V1.46232C12.3636 1.6673 12.2007 1.83379 12 1.83379C11.7992 1.83379 11.6363 1.66735 11.6363 1.46238ZM16.9691 2.72255L17.5032 1.77781C17.6036 1.60004 17.8259 1.53901 18 1.64136C18.1739 1.7446 18.2335 1.97118 18.1331 2.14894L17.5989 3.09402C17.4973 3.27384 17.2732 3.33082 17.1022 3.23013C16.9283 3.12717 16.8687 2.90026 16.9691 2.72255ZM10.2099 5.08702C10.2099 4.86861 10.384 4.69084 10.598 4.69084H13.402C13.616 4.69084 13.7901 4.86861 13.7901 5.08702V5.94758H10.2099V5.08702ZM16.9228 7.27911V8.00355L12.6791 10.3252C12.2411 10.5649 11.7589 10.5649 11.321 10.3252L7.07723 8.00355V7.27911C7.07723 6.95463 7.33579 6.69018 7.65368 6.69018H16.3462C16.6641 6.69018 16.9228 6.95463 16.9228 7.27911ZM16.3462 13.5462C16.6641 13.5462 16.9228 13.2821 16.9228 12.9576V8.84628L13.0224 10.9798C12.3632 11.3404 11.6367 11.3403 10.9776 10.9798L7.07717 8.84628V12.9576C7.07717 13.2821 7.33573 13.5462 7.65362 13.5462H16.3462ZM6.34983 7.27911V12.9576C6.34983 13.6914 6.93476 14.2891 7.65362 14.2891H16.3462C17.0651 14.2891 17.65 13.6914 17.65 12.9576V7.27911C17.65 6.54529 17.0651 5.94758 16.3462 5.94758H14.5173V5.08702C14.5173 4.45899 14.017 3.94796 13.402 3.94796H10.5979C9.98295 3.94796 9.48263 4.45899 9.48263 5.08702V5.94758H7.65368C6.93482 5.94758 6.34983 6.54529 6.34983 7.27911ZM21.2819 17.6944L15.6976 20.9874C14.2172 21.8602 13.3395 22.2985 11.6914 22.5471C9.95016 22.8096 8.21702 22.6744 6.60355 22.4895C5.87202 22.4059 5.2033 22.3424 4.52653 22.2929V17.4819C5.88551 17.3524 7.08087 17.373 8.61146 17.7911C8.64213 17.7992 8.67356 17.8033 8.70532 17.8033H12.645C13.2444 17.8033 13.6463 18.4285 13.4203 18.9849C13.2891 19.3075 12.9848 19.5166 12.645 19.5166H8.70532C8.50451 19.5166 8.3417 19.6825 8.3417 19.8881C8.3417 20.0931 8.50451 20.2592 8.70532 20.2592H12.645C13.1721 20.2592 13.6524 19.9911 13.9403 19.5558C14.0757 19.5814 14.2104 19.5949 14.343 19.5955C14.9783 19.5975 15.2975 19.3503 15.7384 19.0899L20.4875 16.2898C20.8668 16.066 21.3536 16.199 21.5727 16.5864C21.7917 16.9741 21.6613 17.471 21.2819 17.6944ZM3.79935 22.9154C3.79935 23.1041 3.64922 23.2571 3.46482 23.2571H1.83054C1.64609 23.2571 1.49601 23.1041 1.49601 22.9154V17.2413C1.49601 17.0526 1.64609 16.8996 1.83054 16.8996H3.46482C3.64927 16.8996 3.79935 17.0526 3.79935 17.2413V22.9154ZM20.1239 15.6463L15.3748 18.4464C14.9402 18.7029 14.7119 18.8977 14.2006 18.8448C14.3085 17.8974 13.581 17.0608 12.645 17.0608H8.7529C7.12187 16.6214 5.85468 16.6052 4.4094 16.7472C4.23306 16.397 3.87608 16.157 3.46477 16.157H1.83054C1.24501 16.157 0.768777 16.6433 0.768777 17.2413V22.9154C0.768777 23.5137 1.24501 24 1.83054 24H3.46482C4.01 24 4.4603 23.5779 4.51979 23.0371C5.17122 23.0856 5.8171 23.1473 6.52269 23.228C8.26373 23.4271 10.0142 23.5507 11.7976 23.2818C13.6309 23.0054 14.6314 22.4738 16.0613 21.6304L21.6456 18.3374C22.3722 17.9093 22.622 16.9571 22.2025 16.2148C21.783 15.4729 20.8506 15.2176 20.1239 15.6463Z" fill="black"/>
</g>
<defs>
<clipPath id="clip0_48_498">
<rect width="24" height="24" fill="white"/>
</clipPath>
</defs>
</svg>
