<svg width="24" height="24" viewBox="0 0 24 24" fill="none" xmlns="http://www.w3.org/2000/svg">
<g clip-path="url(#clip0_51_1664)">
<path d="M11.446 1.93205C11.651 1.43928 12.349 1.43928 12.554 1.93205L15.0333 7.89303C15.1197 8.10077 15.3151 8.24271 15.5393 8.26069L21.9747 8.77661C22.5067 8.81926 22.7224 9.48317 22.3171 9.83037L17.414 14.0304C17.2432 14.1767 17.1685 14.4064 17.2207 14.6253L18.7187 20.9051C18.8425 21.4242 18.2778 21.8345 17.8223 21.5564L12.3128 18.1911C12.1207 18.0738 11.8793 18.0738 11.6872 18.1911L6.17767 21.5564C5.72221 21.8345 5.15746 21.4242 5.28129 20.9051L6.77926 14.6253C6.83147 14.4064 6.75684 14.1767 6.58597 14.0304L1.68289 9.83037C1.27757 9.48317 1.49329 8.81926 2.02528 8.77661L8.46065 8.26069C8.68493 8.24271 8.88029 8.10077 8.9667 7.89303L11.446 1.93205Z" fill="#1A1A1A"/>
</g>
<defs>
<clipPath id="clip0_51_1664">
<rect width="24" height="24" fill="white"/>
</clipPath>
</defs>
</svg>
