<svg width="153" height="61" viewBox="0 0 153 61" fill="none" xmlns="http://www.w3.org/2000/svg">
    <mask id="mask0_4001_304" style="mask-type:luminance" maskUnits="userSpaceOnUse" x="0" y="0" width="58" height="46">
        <path d="M57.7762 0H0V45.4351H57.7762V0Z" fill="white" />
    </mask>
    <g mask="url(#mask0_4001_304)">
        <path d="M13.6652 40.5798V42.5697H47.5336V28.535L53.7353 25.0059C53.7353 25.0059 45.9966 17.9693 39.179 11.7453C39.1108 15.0056 38.238 22.7696 32.0733 30.3384C23.9916 40.2609 15.9108 41.8269 15.9108 41.8269L15.2693 41.24C15.0476 41.2983 14.9292 41.3225 14.9292 41.3225L13.6652 40.5798ZM37.6553 30.7362C39.3448 30.7362 40.7141 32.0308 40.7141 33.6282H37.6553V30.7362ZM37.6553 34.663H40.7141V37.5551H37.6553V34.663ZM36.7305 30.7362V33.6282H33.6718C33.6718 32.0308 35.041 30.7362 36.7305 30.7362ZM33.6718 34.663H36.7305V37.5551H33.6718V34.663Z" fill="#C7F241" />
        <path d="M14.7317 36.3612C15.2367 36.733 15.7418 36.9444 16.1909 36.9444C16.6401 36.9444 20.1195 35.6713 26.0124 31.4793C31.9051 27.2872 36.0583 20.9199 37.9098 12.9605C31.9051 30.6837 16.0507 33.9995 16.0507 33.9995C16.0507 33.9995 11.2807 30.4704 3.81679 23.5728C10.0176 20.1234 18.8289 12.4561 24.1882 6.53938C23.7391 5.87639 22.8692 5.26627 22.8692 5.26627C15.574 13.5446 2.89103 21.1331 1.15131 22.0344C-0.588395 22.9367 -0.0274432 23.9445 0.702174 24.7939C1.43179 25.6432 14.2267 35.9903 14.7317 36.3612Z" fill="#F2F2F2" />
        <path d="M22.6441 9.43213C18.0703 14.8713 11.336 20.7611 6.3974 23.8386L12.9914 29.3307L8.53034 23.8386C8.53034 23.8386 18.0703 17.0995 22.6441 9.43213Z" fill="#F2F2F2" />
        <path d="M57.2153 24.2365C56.2896 23.4938 29.5201 1.31337 28.7346 0.730125C27.9492 0.146876 27.1911 0.305456 26.5742 1.10193C25.9574 1.89752 25.1993 2.8266 25.1993 2.8266L26.3781 3.80853C26.3781 3.80853 27.5283 2.32308 27.7529 2.03101C27.9775 1.73894 28.4542 1.73894 29.0294 2.40282C29.2785 2.69041 33.9595 6.9801 39.1796 11.7464C45.9972 17.9704 53.7359 25.0071 53.7359 25.0071L47.5341 28.5361V42.5708H13.6657V40.5809L14.9287 41.3236C14.9287 41.3236 15.0472 41.2995 15.2689 41.2412C16.4581 40.9295 20.6169 39.642 25.3945 35.8844C31.0628 31.4273 33.9812 26.9172 36.1133 22.3273C31.764 29.8621 25.9839 36.2034 15.4612 39.6259C10.5226 36.0162 0.281433 26.5982 0.281433 26.5982C0.281433 26.5982 7.32461 34.6373 10.9443 38.1395V43.9764C10.9443 44.8259 11.0845 45.4359 12.2349 45.4359H48.7688C49.8348 45.4359 50.3967 45.1179 50.3967 43.8439V29.9149C50.3967 29.9149 56.0365 26.7576 56.9348 26.333C57.833 25.9083 58.1411 24.9792 57.2153 24.2365Z" fill="#F2F2F2" />
        <path d="M15.3774 10.2877C15.3774 10.2877 12.4314 7.08389 12.4732 4.49735C12.5148 1.91081 16.2823 0.219301 20.786 2.48778C25.2897 4.75627 27.689 8.49676 27.7307 12.5562C28.7616 12.5562 29.1615 12.2382 29.1615 12.2382C29.1615 12.2382 29.6031 8.07926 25.3731 4.17929C21.1432 0.279327 15.0599 -1.6711 12.4722 1.81136C9.8844 5.29383 12.3253 9.15348 14.4298 11.1433L15.3774 10.2877Z" fill="#F2F2F2" />
        <path d="M31.8762 11.6012C31.8762 9.90522 30.6482 8.48427 28.989 8.07932C29.2723 8.67959 29.5405 9.44113 29.6181 10.2735C29.9489 10.6274 30.1516 11.0914 30.1516 11.6012C30.1516 12.7112 29.2003 13.6107 28.0263 13.6107C26.8523 13.6107 25.9009 12.7112 25.9009 11.6012C25.9009 10.9973 26.1842 10.4571 26.6306 10.088C26.4856 9.45546 26.261 8.9188 26.0279 8.49234C24.9183 9.13114 24.1754 10.2824 24.1754 11.6003C24.1754 13.6116 25.8999 15.2414 28.0263 15.2414C30.1526 15.2414 31.8772 13.6107 31.8772 11.6003L31.8762 11.6012Z" fill="#F2F2F2" />
        <path d="M24.5677 17.3144L23.6722 18.1602C22.3343 17.1675 20.5226 16.6228 19.1752 17.8977C17.4667 19.514 18.6502 21.1185 19.9579 22.6658C20.8012 23.6782 21.4095 24.7201 20.7292 25.3626C19.9266 26.1214 18.7536 25.6143 17.8268 24.7381C16.9721 23.9309 16.4785 22.6658 16.8594 21.7806L15.13 21.1185C14.482 22.647 15.0268 24.1557 16.0767 25.3437L15.0997 26.2675L16.4074 27.5038L17.4364 26.5309C18.8057 27.649 20.751 28.0091 22.1401 26.6957C23.9518 24.9836 22.6139 23.2114 21.2968 21.6158C20.5349 20.701 19.8451 19.815 20.5235 19.1726C21.2437 18.4926 22.2736 18.9987 23.1274 19.806C23.8381 20.4788 24.2597 21.5181 24.0854 22.1909L25.7114 22.7545C26.1947 21.4204 25.7218 20.3507 24.9809 19.3984L25.8763 18.5509L24.5677 17.3144Z" fill="#F2F2F2" />
    </g>
    <path d="M81.3147 24.5602V27.9931H73.5577V31.9056H79.5493V35.187H73.5577V42.4061H68.9837V24.5602H81.3147ZM97.3323 24.5602V27.9931H89.5753V31.9056H95.5669V35.187H89.5753V42.4061H85.0013V24.5602H97.3323Z" fill="white" />
    <path d="M144.441 21.2031H111.273C106.545 21.2031 102.713 24.8194 102.713 29.2804V37.3578C102.713 41.8188 106.545 45.4351 111.273 45.4351H144.441C149.168 45.4351 153 41.8188 153 37.3578V29.2804C153 24.8194 149.168 21.2031 144.441 21.2031Z" fill="#C7F241" />
    <path d="M117.238 24.4088C119.591 24.4088 121.544 24.9809 123.095 26.1252C124.647 27.2694 125.672 28.8261 126.172 30.7949H122.213C121.803 29.8357 121.161 29.0785 120.287 28.5232C119.431 27.9678 118.396 27.6902 117.184 27.6902C116.186 27.6902 115.285 27.9257 114.483 28.3969C113.68 28.8682 113.056 29.5412 112.61 30.4163C112.164 31.2914 111.941 32.3178 111.941 33.4958C111.941 34.6569 112.164 35.6749 112.61 36.55C113.056 37.4251 113.68 38.0982 114.483 38.5694C115.285 39.0406 116.186 39.2761 117.184 39.2761C118.396 39.2761 119.431 38.9985 120.287 38.4432C121.161 37.8878 121.803 37.1306 122.213 36.1714H126.172C125.672 38.1403 124.647 39.6969 123.095 40.8411C121.544 41.9854 119.591 42.5576 117.238 42.5576C115.437 42.5576 113.841 42.1789 112.45 41.4217C111.077 40.6476 110.007 39.5707 109.24 38.1907C108.491 36.8108 108.116 35.2458 108.116 33.4958C108.116 31.7289 108.491 30.1555 109.24 28.7756C110.007 27.3957 111.077 26.3271 112.45 25.5699C113.822 24.7958 115.419 24.4088 117.238 24.4088ZM146.95 33.4705C146.95 35.2375 146.557 36.7941 145.773 38.1403C144.987 39.4864 143.847 40.5382 142.349 41.2955C140.868 42.0359 139.103 42.4061 137.053 42.4061H130.339V24.5854H137.053C139.103 24.5854 140.868 24.9557 142.349 25.6961C143.847 26.4197 144.987 27.4546 145.773 28.8008C146.557 30.1302 146.95 31.6868 146.95 33.4705ZM136.732 39.2256C138.765 39.2256 140.333 38.7208 141.439 37.7111C142.563 36.7015 143.125 35.2879 143.125 33.4705C143.125 31.6363 142.563 30.2144 141.439 29.2047C140.333 28.195 138.765 27.6902 136.732 27.6902H134.11V39.2256H136.732Z" fill="#1A1A1A" />
    <path d="M6.23982 51.0166V52.1312H2.34956V54.7847H5.55935V55.8509H2.34956V59.5705H0.885895V51.0166H6.23982ZM43.5436 51.0166V52.1312H39.6533V54.7847H42.8631V55.8509H39.6533V59.5705H38.1896V51.0166H43.5436ZM76.19 50.9318C77.3028 50.9318 78.2272 51.1983 78.9633 51.7314C79.6994 52.2645 80.1958 52.9874 80.4526 53.9002H78.8991C78.6851 53.3832 78.3427 52.9753 77.872 52.6765C77.4098 52.3695 76.8406 52.2161 76.1644 52.2161C75.6251 52.2161 75.1415 52.3413 74.7135 52.5917C74.2941 52.8421 73.9603 53.2015 73.7121 53.67C73.4724 54.1304 73.3526 54.6716 73.3526 55.2935C73.3526 55.9074 73.4724 56.4486 73.7121 56.9171C73.9603 57.3775 74.2941 57.7329 74.7135 57.9833C75.1415 58.2337 75.6251 58.3589 76.1644 58.3589C76.8406 58.3589 77.4098 58.2095 77.872 57.9106C78.3427 57.6037 78.6851 57.1958 78.8991 56.6869H80.4526C80.1958 57.5996 79.6994 58.3225 78.9633 58.8556C78.2272 59.3807 77.3028 59.6432 76.19 59.6432C75.3341 59.6432 74.5766 59.4615 73.9175 59.098C73.2584 58.7264 72.7491 58.2135 72.3896 57.5592C72.0301 56.8969 71.8504 56.1417 71.8504 55.2935C71.8504 54.4454 72.0301 53.6942 72.3896 53.04C72.7491 52.3776 73.2584 51.8607 73.9175 51.4891C74.5766 51.1175 75.3341 50.9318 76.19 50.9318ZM123.801 55.2814C123.801 56.1457 123.612 56.9009 123.236 57.5471C122.868 58.1852 122.324 58.682 121.605 59.0374C120.895 59.3928 120.043 59.5705 119.05 59.5705H116.02V51.0166H119.05C120.043 51.0166 120.895 51.1943 121.605 51.5497C122.324 51.897 122.868 52.3897 123.236 53.0278C123.612 53.6659 123.801 54.4171 123.801 55.2814ZM118.934 58.3225C120.022 58.3225 120.856 58.056 121.438 57.5229C122.02 56.9898 122.311 56.2426 122.311 55.2814C122.311 54.3202 122.02 53.5731 121.438 53.04C120.856 52.5068 120.022 52.2403 118.934 52.2403H117.484V58.3225H118.934Z" fill="#C7F241" />
    <path d="M12.949 52.8098C13.591 52.8098 14.1388 52.9592 14.5925 53.258C15.0461 53.5569 15.3671 53.9527 15.5554 54.4454V52.8946H17.0191V59.5705H15.5554V58.0196C15.3671 58.5124 15.0461 58.9082 14.5925 59.207C14.1388 59.5059 13.591 59.6553 12.949 59.6553C12.3328 59.6553 11.7807 59.518 11.2928 59.2434C10.8135 58.9687 10.4368 58.5729 10.1629 58.056C9.889 57.539 9.75204 56.9292 9.75204 56.2265C9.75204 55.5318 9.889 54.926 10.1629 54.4091C10.4368 53.8921 10.8135 53.4963 11.2928 53.2217C11.7807 52.9471 12.3328 52.8098 12.949 52.8098ZM13.3984 54.0214C12.7479 54.0214 12.2258 54.2192 11.832 54.615C11.4469 55.0028 11.2543 55.5399 11.2543 56.2265C11.2543 56.913 11.4469 57.4542 11.832 57.85C12.2258 58.2377 12.7479 58.4316 13.3984 58.4316C13.8093 58.4316 14.1773 58.3427 14.5026 58.165C14.8278 57.9793 15.0846 57.7208 15.2729 57.3896C15.4612 57.0584 15.5554 56.6707 15.5554 56.2265C15.5554 55.7903 15.4612 55.4066 15.2729 55.0754C15.0846 54.7362 14.8278 54.4777 14.5026 54.3C14.1773 54.1142 13.8093 54.0214 13.3984 54.0214ZM23.6672 52.8098C24.4974 52.8098 25.1608 53.0117 25.6572 53.4156C26.1622 53.8113 26.4704 54.3444 26.5817 55.0149H25.195C25.1351 54.6514 24.9682 54.3606 24.6943 54.1425C24.429 53.9163 24.0737 53.8033 23.6287 53.8033C23.2606 53.8033 22.9739 53.8881 22.7684 54.0577C22.5716 54.2193 22.4731 54.4414 22.4731 54.7241C22.4731 54.9341 22.5459 55.1037 22.6914 55.233C22.8369 55.3622 23.0167 55.4632 23.2306 55.5359C23.4532 55.6086 23.7656 55.6893 24.1679 55.7782C24.6986 55.8913 25.1266 56.0084 25.4518 56.1295C25.7856 56.2507 26.0681 56.4446 26.2992 56.7111C26.5389 56.9696 26.6587 57.325 26.6587 57.7773C26.6587 58.3347 26.4319 58.787 25.9782 59.1343C25.5331 59.4816 24.9297 59.6553 24.1679 59.6553C23.2863 59.6553 22.5716 59.4615 22.0238 59.0737C21.4845 58.686 21.1593 58.1448 21.048 57.4502H22.4731C22.5159 57.8137 22.6871 58.1085 22.9867 58.3347C23.2863 58.5608 23.68 58.6739 24.1679 58.6739C24.5188 58.6739 24.7927 58.5891 24.9896 58.4195C25.195 58.2418 25.2977 58.0196 25.2977 57.7531C25.2977 57.5188 25.2207 57.3331 25.0666 57.1958C24.9126 57.0584 24.72 56.9534 24.4889 56.8807C24.2578 56.8 23.9411 56.7192 23.5388 56.6384C23.0252 56.5253 22.6058 56.4123 22.2805 56.2992C21.9638 56.1861 21.6899 56.0043 21.4588 55.7539C21.2363 55.4955 21.125 55.1481 21.125 54.712C21.125 54.1466 21.3476 53.6902 21.7927 53.3429C22.2463 52.9875 22.8711 52.8098 23.6672 52.8098ZM34.2508 58.371V59.5705H33.3521C32.5988 59.5705 32.0254 59.4009 31.6316 59.0616C31.2464 58.7143 31.0539 58.1408 31.0539 57.3411V54.0698H30.0396V52.8946H31.0539V51.2347H32.5304V52.8946H34.238V54.0698H32.5304V57.3654C32.5304 57.745 32.6031 58.0075 32.7486 58.1529C32.9027 58.2983 33.168 58.371 33.5447 58.371H34.2508ZM50.2528 52.8098C50.8947 52.8098 51.4426 52.9592 51.8962 53.258C52.3499 53.5569 52.6708 53.9527 52.8591 54.4454V52.8946H54.3228V59.5705H52.8591V58.0196C52.6708 58.5124 52.3499 58.9082 51.8962 59.207C51.4426 59.5059 50.8947 59.6553 50.2528 59.6553C49.6365 59.6553 49.0844 59.518 48.5965 59.2434C48.1172 58.9687 47.7406 58.5729 47.4667 58.056C47.1928 57.539 47.0558 56.9292 47.0558 56.2265C47.0558 55.5318 47.1928 54.926 47.4667 54.4091C47.7406 53.8921 48.1172 53.4963 48.5965 53.2217C49.0844 52.9471 49.6365 52.8098 50.2528 52.8098ZM50.7022 54.0214C50.0517 54.0214 49.5295 54.2192 49.1358 54.615C48.7506 55.0028 48.558 55.5399 48.558 56.2265C48.558 56.913 48.7506 57.4542 49.1358 57.85C49.5295 58.2377 50.0517 58.4316 50.7022 58.4316C51.113 58.4316 51.4811 58.3427 51.8063 58.165C52.1316 57.9793 52.3884 57.7208 52.5767 57.3896C52.765 57.0584 52.8591 56.6707 52.8591 56.2265C52.8591 55.7903 52.765 55.4066 52.5767 55.0754C52.3884 54.7362 52.1316 54.4777 51.8063 54.3C51.4811 54.1142 51.113 54.0214 50.7022 54.0214ZM58.4416 50.956C58.4416 50.7218 58.5272 50.5279 58.6984 50.3744C58.8696 50.221 59.0964 50.1442 59.3789 50.1442C59.6613 50.1442 59.8882 50.221 60.0593 50.3744C60.2391 50.5279 60.329 50.7218 60.329 50.956C60.329 51.1902 60.2391 51.3801 60.0593 51.5255C59.8882 51.6708 59.6613 51.7435 59.3789 51.7435C59.0964 51.7435 58.8696 51.6708 58.6984 51.5255C58.5272 51.3801 58.4416 51.1902 58.4416 50.956ZM60.1107 52.8946V59.5705H58.647V52.8946H60.1107ZM65.9135 54.2031C66.1531 53.7669 66.4955 53.4236 66.9406 53.1732C67.3857 52.9148 67.8993 52.7855 68.4813 52.7855V54.2879H68.0448C67.4028 54.2879 66.885 54.4373 66.4912 54.7362C66.1061 55.027 65.9135 55.5116 65.9135 56.1901V59.5705H64.4498V52.8946H65.9135V54.2031ZM87.3183 52.8098C87.9602 52.8098 88.508 52.9592 88.9617 53.258C89.4153 53.5569 89.7363 53.9527 89.9246 54.4454V52.8946H91.3883V59.5705H89.9246V58.0196C89.7363 58.5124 89.4153 58.9082 88.9617 59.207C88.508 59.5059 87.9602 59.6553 87.3183 59.6553C86.702 59.6553 86.1499 59.518 85.662 59.2434C85.1827 58.9687 84.8061 58.5729 84.5322 58.056C84.2583 57.539 84.1213 56.9292 84.1213 56.2265C84.1213 55.5318 84.2583 54.926 84.5322 54.4091C84.8061 53.8921 85.1827 53.4963 85.662 53.2217C86.1499 52.9471 86.702 52.8098 87.3183 52.8098ZM87.7676 54.0214C87.1171 54.0214 86.595 54.2192 86.2013 54.615C85.8161 55.0028 85.6235 55.5399 85.6235 56.2265C85.6235 56.913 85.8161 57.4542 86.2013 57.85C86.595 58.2377 87.1171 58.4316 87.7676 58.4316C88.1785 58.4316 88.5466 58.3427 88.8718 58.165C89.1971 57.9793 89.4539 57.7208 89.6422 57.3896C89.8305 57.0584 89.9246 56.6707 89.9246 56.2265C89.9246 55.7903 89.8305 55.4066 89.6422 55.0754C89.4539 54.7362 89.1971 54.4777 88.8718 54.3C88.5466 54.1142 88.1785 54.0214 87.7676 54.0214ZM98.0365 52.8098C98.8668 52.8098 99.5301 53.0117 100.027 53.4156C100.532 53.8113 100.84 54.3444 100.951 55.0149H99.5644C99.5045 54.6514 99.3375 54.3606 99.0636 54.1425C98.7983 53.9163 98.4431 53.8033 97.998 53.8033C97.6299 53.8033 97.3432 53.8881 97.1378 54.0577C96.9409 54.2193 96.8425 54.4414 96.8425 54.7241C96.8425 54.9341 96.9152 55.1037 97.0607 55.233C97.2062 55.3622 97.386 55.4632 97.6 55.5359C97.8225 55.6086 98.1349 55.6893 98.5372 55.7782C99.0679 55.8913 99.4959 56.0084 99.8212 56.1295C100.155 56.2507 100.437 56.4446 100.669 56.7111C100.908 56.9696 101.028 57.325 101.028 57.7773C101.028 58.3347 100.801 58.787 100.348 59.1343C99.9025 59.4816 99.299 59.6553 98.5372 59.6553C97.6556 59.6553 96.9409 59.4615 96.3931 59.0737C95.8539 58.686 95.5286 58.1448 95.4173 57.4502H96.8425C96.8853 57.8137 97.0564 58.1085 97.356 58.3347C97.6556 58.5608 98.0493 58.6739 98.5372 58.6739C98.8882 58.6739 99.1621 58.5891 99.3589 58.4195C99.5644 58.2418 99.6671 58.0196 99.6671 57.7531C99.6671 57.5188 99.59 57.3331 99.436 57.1958C99.2819 57.0584 99.0893 56.9534 98.8582 56.8807C98.6271 56.8 98.3104 56.7192 97.9081 56.6384C97.3946 56.5253 96.9751 56.4123 96.6499 56.2992C96.3332 56.1861 96.0593 56.0043 95.8282 55.7539C95.6056 55.4955 95.4944 55.1481 95.4944 54.712C95.4944 54.1466 95.7169 53.6902 96.162 53.3429C96.6156 52.9875 97.2405 52.8098 98.0365 52.8098ZM109.018 52.7855C109.84 52.7855 110.499 53.0359 110.996 53.5367C111.492 54.0375 111.74 54.7524 111.74 55.6812V59.5705H110.277V55.8266C110.277 55.2289 110.114 54.7685 109.789 54.4454C109.463 54.1142 109.018 53.9487 108.453 53.9487C107.871 53.9487 107.405 54.1264 107.054 54.4818C106.703 54.8291 106.527 55.342 106.527 56.0205V59.5705H105.064V50.6046H106.527V54.3606C106.716 53.8598 107.033 53.4721 107.478 53.1975C107.923 52.9228 108.436 52.7855 109.018 52.7855ZM134.414 55.9115C134.414 56.1376 134.397 56.3355 134.363 56.5051H128.919C128.945 57.1917 129.146 57.7006 129.523 58.0318C129.899 58.3629 130.366 58.5285 130.922 58.5285C131.41 58.5285 131.821 58.4114 132.155 58.1772C132.497 57.9429 132.707 57.6319 132.784 57.2442H134.35C134.256 57.7127 134.059 58.1287 133.759 58.4922C133.46 58.8557 133.07 59.1424 132.591 59.3524C132.112 59.5543 131.577 59.6553 130.986 59.6553C130.301 59.6553 129.694 59.518 129.163 59.2434C128.641 58.9687 128.23 58.5729 127.93 58.056C127.631 57.539 127.481 56.9292 127.481 56.2265C127.481 55.5318 127.631 54.926 127.93 54.4091C128.23 53.8921 128.641 53.4963 129.163 53.2217C129.694 52.9471 130.301 52.8098 130.986 52.8098C131.68 52.8098 132.283 52.9471 132.797 53.2217C133.319 53.4883 133.717 53.8598 133.991 54.3364C134.273 54.8049 134.414 55.3299 134.414 55.9115ZM132.938 55.8751C132.955 55.4389 132.874 55.0754 132.694 54.7847C132.523 54.4858 132.283 54.2677 131.975 54.1304C131.675 53.985 131.346 53.9123 130.986 53.9123C130.413 53.9123 129.933 54.0779 129.548 54.4091C129.163 54.7402 128.953 55.2289 128.919 55.8751H132.938ZM141.233 52.8098C141.875 52.8098 142.423 52.9592 142.876 53.258C143.33 53.5569 143.651 53.9527 143.839 54.4454V52.8946H145.303V59.5705H143.839V58.0196C143.651 58.5124 143.33 58.9082 142.876 59.207C142.423 59.5059 141.875 59.6553 141.233 59.6553C140.617 59.6553 140.065 59.518 139.577 59.2434C139.097 58.9687 138.721 58.5729 138.447 58.056C138.173 57.539 138.036 56.9292 138.036 56.2265C138.036 55.5318 138.173 54.926 138.447 54.4091C138.721 53.8921 139.097 53.4963 139.577 53.2217C140.065 52.9471 140.617 52.8098 141.233 52.8098ZM141.682 54.0214C141.032 54.0214 140.51 54.2192 140.116 54.615C139.731 55.0028 139.538 55.5399 139.538 56.2265C139.538 56.913 139.731 57.4542 140.116 57.85C140.51 58.2377 141.032 58.4316 141.682 58.4316C142.093 58.4316 142.461 58.3427 142.786 58.165C143.112 57.9793 143.368 57.7208 143.557 57.3896C143.745 57.0584 143.839 56.6707 143.839 56.2265C143.839 55.7903 143.745 55.4066 143.557 55.0754C143.368 54.7362 143.112 54.4777 142.786 54.3C142.461 54.1142 142.093 54.0214 141.682 54.0214ZM151.091 50.6046V59.5705H149.628V50.6046H151.091Z" fill="white" />
</svg>