<svg width="153" height="61" viewBox="0 0 153 61" fill="none" xmlns="http://www.w3.org/2000/svg">
    <mask id="mask0_4001_744" style="mask-type:luminance" maskUnits="userSpaceOnUse" x="0" y="0" width="58" height="46">
        <path d="M57.7762 0H0V45.4351H57.7762V0Z" fill="white" />
    </mask>
    <g mask="url(#mask0_4001_744)">
        <path d="M13.6652 40.5797V42.5695H47.5336V28.5348L53.7353 25.0057C53.7353 25.0057 45.9966 17.9691 39.179 11.7451C39.1108 15.0054 38.238 22.7695 32.0733 30.3383C23.9916 40.2607 15.9108 41.8268 15.9108 41.8268L15.2693 41.2399C15.0476 41.2981 14.9292 41.3224 14.9292 41.3224L13.6652 40.5797ZM37.6553 30.7361C39.3448 30.7361 40.7141 32.0307 40.7141 33.6281H37.6553V30.7361ZM37.6553 34.6629H40.7141V37.555H37.6553V34.6629ZM36.7305 30.7361V33.6281H33.6718C33.6718 32.0307 35.041 30.7361 36.7305 30.7361ZM33.6718 34.6629H36.7305V37.555H33.6718V34.6629Z" fill="#C7F241" />
        <path d="M14.7317 36.3611C15.2367 36.7328 15.7418 36.9443 16.1909 36.9443C16.6401 36.9443 20.1195 35.6712 26.0124 31.4791C31.9051 27.2871 36.0582 20.9197 37.9098 12.9604C31.9051 30.6835 16.0507 33.9994 16.0507 33.9994C16.0507 33.9994 11.2807 30.4703 3.81677 23.5726C10.0176 20.1233 18.8288 12.4559 24.1882 6.53923C23.7391 5.87624 22.8692 5.26611 22.8692 5.26611C15.574 13.5445 2.89101 21.1329 1.1513 22.0343C-0.588411 22.9365 -0.0274585 23.9444 0.702159 24.7937C1.43178 25.643 14.2266 35.9901 14.7317 36.3611Z" fill="#F2F2F2" />
        <path d="M22.6441 9.43213C18.0703 14.8713 11.336 20.7611 6.39738 23.8386L12.9914 29.3307L8.53031 23.8386C8.53031 23.8386 18.0703 17.0995 22.6441 9.43213Z" fill="#F2F2F2" />
        <path d="M57.2153 24.2363C56.2896 23.4936 29.5201 1.31316 28.7346 0.729911C27.9491 0.146663 27.1911 0.305242 26.5742 1.10172C25.9574 1.8973 25.1993 2.82638 25.1993 2.82638L26.3781 3.80832C26.3781 3.80832 27.5283 2.32287 27.7529 2.03079C27.9775 1.73873 28.4541 1.73873 29.0293 2.4026C29.2785 2.6902 33.9595 6.97989 39.1796 11.7462C45.9972 17.9702 53.7359 25.0069 53.7359 25.0069L47.5341 28.5359V42.5706H13.6657V40.5807L14.9287 41.3234C14.9287 41.3234 15.0472 41.2993 15.2689 41.241C16.4581 40.9292 20.6169 39.6418 25.3945 35.8842C31.0627 31.427 33.9812 26.917 36.1132 22.3271C31.764 29.8619 25.9839 36.2032 15.4612 39.6257C10.5226 36.016 0.281425 26.598 0.281425 26.598C0.281425 26.598 7.3246 34.6371 10.9443 38.1393V43.9762C10.9443 44.8257 11.0845 45.4357 12.2349 45.4357H48.7688C49.8348 45.4357 50.3967 45.1177 50.3967 43.8437V29.9147C50.3967 29.9147 56.0365 26.7574 56.9348 26.3328C57.833 25.9081 58.1411 24.979 57.2153 24.2363Z" fill="#F2F2F2" />
        <path d="M15.3774 10.2877C15.3774 10.2877 12.4314 7.08389 12.4731 4.49735C12.5148 1.91081 16.2823 0.219301 20.786 2.48778C25.2897 4.75627 27.6889 8.49676 27.7307 12.5562C28.7615 12.5562 29.1615 12.2382 29.1615 12.2382C29.1615 12.2382 29.6031 8.07926 25.3731 4.17929C21.1432 0.279327 15.0599 -1.6711 12.4722 1.81136C9.88439 5.29383 12.3253 9.15348 14.4298 11.1433L15.3774 10.2877Z" fill="#F2F2F2" />
        <path d="M31.8762 11.601C31.8762 9.90501 30.6482 8.48406 28.989 8.0791C29.2723 8.67938 29.5405 9.44091 29.6181 10.2733C29.9488 10.6272 30.1516 11.0912 30.1516 11.601C30.1516 12.711 29.2003 13.6105 28.0263 13.6105C26.8523 13.6105 25.9009 12.711 25.9009 11.601C25.9009 10.9971 26.1842 10.4569 26.6306 10.0878C26.4856 9.45525 26.261 8.91859 26.0279 8.49213C24.9183 9.13092 24.1754 10.2821 24.1754 11.6001C24.1754 13.6114 25.8999 15.2411 28.0263 15.2411C30.1526 15.2411 31.8772 13.6105 31.8772 11.6001L31.8762 11.601Z" fill="#F2F2F2" />
        <path d="M24.5676 17.3142L23.6722 18.16C22.3343 17.1673 20.5226 16.6226 19.1752 17.8975C17.4667 19.5138 18.6502 21.1183 19.9578 22.6655C20.8012 23.6779 21.4095 24.7199 20.7292 25.3624C19.9266 26.1211 18.7535 25.6141 17.8268 24.7379C16.9721 23.9307 16.4784 22.6655 16.8593 21.7804L15.13 21.1183C14.4819 22.6468 15.0268 24.1555 16.0767 25.3435L15.0997 26.2672L16.4074 27.5036L17.4363 26.5307C18.8056 27.6488 20.751 28.0089 22.1401 26.6954C23.9518 24.9833 22.6138 23.2112 21.2968 21.6156C20.5349 20.7008 19.8451 19.8147 20.5235 19.1724C21.2437 18.4924 22.2736 18.9985 23.1274 19.8058C23.8381 20.4786 24.2597 21.5179 24.0854 22.1907L25.7114 22.7543C26.1947 21.4202 25.7218 20.3505 24.9808 19.3982L25.8763 18.5506L24.5676 17.3142Z" fill="#F2F2F2" />
    </g>
    <path d="M81.3147 24.5601V27.9929H73.5577V31.9054H79.5493V35.1868H73.5577V42.406H68.9837V24.5601H81.3147ZM97.3323 24.5601V27.9929H89.5753V31.9054H95.5669V35.1868H89.5753V42.406H85.0013V24.5601H97.3323Z" fill="white" />
    <path d="M144.441 21.2031H111.273C106.545 21.2031 102.713 24.8195 102.713 29.2805V37.3578C102.713 41.8188 106.545 45.4352 111.273 45.4352H144.441C149.168 45.4352 153 41.8188 153 37.3578V29.2805C153 24.8195 149.168 21.2031 144.441 21.2031Z" fill="#C7F241" />
    <path d="M117.238 24.4087C119.591 24.4087 121.544 24.9809 123.095 26.1251C124.647 27.2694 125.672 28.826 126.172 30.7949H122.213C121.803 29.8357 121.161 29.0784 120.287 28.5231C119.431 27.9678 118.396 27.6901 117.184 27.6901C116.186 27.6901 115.285 27.9257 114.483 28.3969C113.68 28.8681 113.056 29.5411 112.61 30.4162C112.164 31.2913 111.941 32.3177 111.941 33.4957C111.941 34.6568 112.164 35.6749 112.61 36.55C113.056 37.425 113.68 38.0981 114.483 38.5693C115.285 39.0405 116.186 39.2761 117.184 39.2761C118.396 39.2761 119.431 38.9984 120.287 38.4431C121.161 37.8878 121.803 37.1305 122.213 36.1713H126.172C125.672 38.1402 124.647 39.6968 123.095 40.8411C121.544 41.9853 119.591 42.5575 117.238 42.5575C115.437 42.5575 113.841 42.1789 112.45 41.4216C111.077 40.6475 110.007 39.5706 109.24 38.1907C108.491 36.8108 108.116 35.2458 108.116 33.4957C108.116 31.7288 108.491 30.1554 109.24 28.7755C110.007 27.3956 111.077 26.3271 112.45 25.5698C113.822 24.7957 115.419 24.4087 117.238 24.4087ZM146.95 33.4705C146.95 35.2374 146.557 36.794 145.773 38.1402C144.987 39.4864 143.847 40.5382 142.349 41.2954C140.868 42.0358 139.103 42.406 137.053 42.406H130.339V24.5854H137.053C139.103 24.5854 140.868 24.9556 142.349 25.696C143.847 26.4197 144.987 27.4546 145.773 28.8008C146.557 30.1302 146.95 31.6867 146.95 33.4705ZM136.732 39.2256C138.765 39.2256 140.333 38.7208 141.439 37.7111C142.563 36.7014 143.125 35.2879 143.125 33.4705C143.125 31.6362 142.563 30.2143 141.439 29.2046C140.333 28.195 138.765 27.6901 136.732 27.6901H134.11V39.2256H136.732Z" fill="#1A1A1A" />
    <path d="M6.23983 51.0165V52.1311H2.34957V54.7845H5.55936V55.8508H2.34957V59.5704H0.885902V51.0165H6.23983ZM43.5436 51.0165V52.1311H39.6533V54.7845H42.8631V55.8508H39.6533V59.5704H38.1897V51.0165H43.5436ZM76.19 50.9316C77.3028 50.9316 78.2272 51.1982 78.9633 51.7313C79.6994 52.2644 80.1959 52.9873 80.4526 53.9001H78.8991C78.6851 53.3831 78.3427 52.9752 77.872 52.6763C77.4098 52.3694 76.8406 52.2159 76.1644 52.2159C75.6251 52.2159 75.1415 52.3411 74.7135 52.5915C74.2941 52.8419 73.9603 53.2014 73.7121 53.6699C73.4724 54.1303 73.3526 54.6715 73.3526 55.2934C73.3526 55.9073 73.4724 56.4485 73.7121 56.917C73.9603 57.3774 74.2941 57.7328 74.7135 57.9832C75.1415 58.2336 75.6251 58.3588 76.1644 58.3588C76.8406 58.3588 77.4098 58.2093 77.872 57.9105C78.3427 57.6035 78.6851 57.1956 78.8991 56.6868H80.4526C80.1959 57.5995 79.6994 58.3224 78.9633 58.8555C78.2272 59.3806 77.3028 59.6431 76.19 59.6431C75.3341 59.6431 74.5766 59.4613 73.9175 59.0978C73.2584 58.7263 72.7491 58.2134 72.3896 57.5591C72.0302 56.8968 71.8504 56.1415 71.8504 55.2934C71.8504 54.4453 72.0302 53.6941 72.3896 53.0398C72.7491 52.3775 73.2584 51.8605 73.9175 51.489C74.5766 51.1174 75.3341 50.9316 76.19 50.9316ZM123.801 55.2813C123.801 56.1456 123.612 56.9008 123.236 57.547C122.868 58.1851 122.324 58.6819 121.605 59.0373C120.895 59.3927 120.043 59.5704 119.05 59.5704H116.02V51.0165H119.05C120.043 51.0165 120.895 51.1942 121.605 51.5496C122.324 51.8969 122.868 52.3896 123.236 53.0277C123.612 53.6658 123.801 54.417 123.801 55.2813ZM118.934 58.3224C120.022 58.3224 120.856 58.0559 121.438 57.5228C122.02 56.9897 122.311 56.2425 122.311 55.2813C122.311 54.3201 122.02 53.5729 121.438 53.0398C120.856 52.5067 120.022 52.2402 118.934 52.2402H117.484V58.3224H118.934Z" fill="#C7F241" />
    <path d="M12.949 52.8096C13.591 52.8096 14.1388 52.959 14.5925 53.2579C15.0461 53.5567 15.3671 53.9525 15.5554 54.4452V52.8944H17.0191V59.5703H15.5554V58.0195C15.3671 58.5122 15.0461 58.908 14.5925 59.2068C14.1388 59.5057 13.591 59.6551 12.949 59.6551C12.3328 59.6551 11.7807 59.5178 11.2928 59.2432C10.8135 58.9685 10.4368 58.5728 10.1629 58.0558C9.889 57.5389 9.75205 56.929 9.75205 56.2263C9.75205 55.5316 9.889 54.9258 10.1629 54.4089C10.4368 53.8919 10.8135 53.4961 11.2928 53.2215C11.7807 52.9469 12.3328 52.8096 12.949 52.8096ZM13.3984 54.0212C12.7479 54.0212 12.2258 54.2191 11.832 54.6149C11.4469 55.0026 11.2543 55.5397 11.2543 56.2263C11.2543 56.9129 11.4469 57.454 11.832 57.8498C12.2258 58.2376 12.7479 58.4314 13.3984 58.4314C13.8093 58.4314 14.1773 58.3426 14.5026 58.1649C14.8278 57.9791 15.0846 57.7206 15.2729 57.3894C15.4612 57.0583 15.5554 56.6705 15.5554 56.2263C15.5554 55.7901 15.4612 55.4064 15.2729 55.0753C15.0846 54.736 14.8278 54.4775 14.5026 54.2998C14.1773 54.1141 13.8093 54.0212 13.3984 54.0212ZM23.6672 52.8096C24.4974 52.8096 25.1608 53.0115 25.6572 53.4154C26.1623 53.8112 26.4704 54.3443 26.5817 55.0147H25.195C25.1351 54.6512 24.9682 54.3604 24.6943 54.1423C24.429 53.9162 24.0737 53.8031 23.6287 53.8031C23.2606 53.8031 22.9739 53.8879 22.7684 54.0575C22.5716 54.2191 22.4731 54.4412 22.4731 54.7239C22.4731 54.9339 22.5459 55.1035 22.6914 55.2328C22.8369 55.362 23.0167 55.463 23.2306 55.5357C23.4532 55.6084 23.7656 55.6891 24.1679 55.778C24.6986 55.8911 25.1266 56.0082 25.4518 56.1294C25.7856 56.2505 26.0681 56.4444 26.2992 56.7109C26.5389 56.9694 26.6587 57.3248 26.6587 57.7771C26.6587 58.3345 26.4319 58.7868 25.9782 59.1341C25.5331 59.4815 24.9297 59.6551 24.1679 59.6551C23.2863 59.6551 22.5716 59.4613 22.0238 59.0736C21.4845 58.6858 21.1593 58.1447 21.048 57.45H22.4731C22.5159 57.8135 22.6871 58.1083 22.9867 58.3345C23.2863 58.5606 23.68 58.6737 24.1679 58.6737C24.5188 58.6737 24.7927 58.5889 24.9896 58.4193C25.195 58.2416 25.2978 58.0195 25.2978 57.7529C25.2978 57.5187 25.2207 57.3329 25.0666 57.1956C24.9126 57.0583 24.72 56.9532 24.4889 56.8806C24.2578 56.7998 23.9411 56.719 23.5388 56.6382C23.0252 56.5252 22.6058 56.4121 22.2805 56.299C21.9639 56.1859 21.6899 56.0042 21.4588 55.7538C21.2363 55.4953 21.125 55.148 21.125 54.7118C21.125 54.1464 21.3476 53.69 21.7927 53.3427C22.2463 52.9873 22.8712 52.8096 23.6672 52.8096ZM34.2508 58.3708V59.5703H33.3521C32.5988 59.5703 32.0254 59.4007 31.6316 59.0614C31.2465 58.7141 31.0539 58.1406 31.0539 57.341V54.0696H30.0396V52.8944H31.0539V51.2345H32.5304V52.8944H34.238V54.0696H32.5304V57.3652C32.5304 57.7448 32.6031 58.0073 32.7486 58.1527C32.9027 58.2981 33.168 58.3708 33.5447 58.3708H34.2508ZM50.2528 52.8096C50.8948 52.8096 51.4426 52.959 51.8962 53.2579C52.3499 53.5567 52.6708 53.9525 52.8592 54.4452V52.8944H54.3228V59.5703H52.8592V58.0195C52.6708 58.5122 52.3499 58.908 51.8962 59.2068C51.4426 59.5057 50.8948 59.6551 50.2528 59.6551C49.6365 59.6551 49.0844 59.5178 48.5965 59.2432C48.1172 58.9685 47.7406 58.5728 47.4667 58.0558C47.1928 57.5389 47.0558 56.929 47.0558 56.2263C47.0558 55.5316 47.1928 54.9258 47.4667 54.4089C47.7406 53.8919 48.1172 53.4961 48.5965 53.2215C49.0844 52.9469 49.6365 52.8096 50.2528 52.8096ZM50.7022 54.0212C50.0517 54.0212 49.5295 54.2191 49.1358 54.6149C48.7506 55.0026 48.558 55.5397 48.558 56.2263C48.558 56.9129 48.7506 57.454 49.1358 57.8498C49.5295 58.2376 50.0517 58.4314 50.7022 58.4314C51.113 58.4314 51.4811 58.3426 51.8063 58.1649C52.1316 57.9791 52.3884 57.7206 52.5767 57.3894C52.765 57.0583 52.8592 56.6705 52.8592 56.2263C52.8592 55.7901 52.765 55.4064 52.5767 55.0753C52.3884 54.736 52.1316 54.4775 51.8063 54.2998C51.4811 54.1141 51.113 54.0212 50.7022 54.0212ZM58.4416 50.9558C58.4416 50.7216 58.5272 50.5277 58.6984 50.3742C58.8696 50.2208 59.0964 50.144 59.3789 50.144C59.6613 50.144 59.8882 50.2208 60.0594 50.3742C60.2391 50.5277 60.329 50.7216 60.329 50.9558C60.329 51.1901 60.2391 51.3799 60.0594 51.5253C59.8882 51.6707 59.6613 51.7434 59.3789 51.7434C59.0964 51.7434 58.8696 51.6707 58.6984 51.5253C58.5272 51.3799 58.4416 51.1901 58.4416 50.9558ZM60.1107 52.8944V59.5703H58.647V52.8944H60.1107ZM65.9135 54.2029C66.1531 53.7667 66.4955 53.4234 66.9406 53.1731C67.3857 52.9146 67.8993 52.7853 68.4813 52.7853V54.2877H68.0448C67.4028 54.2877 66.885 54.4372 66.4912 54.736C66.1061 55.0268 65.9135 55.5114 65.9135 56.1899V59.5703H64.4498V52.8944H65.9135V54.2029ZM87.3183 52.8096C87.9602 52.8096 88.508 52.959 88.9617 53.2579C89.4153 53.5567 89.7363 53.9525 89.9246 54.4452V52.8944H91.3883V59.5703H89.9246V58.0195C89.7363 58.5122 89.4153 58.908 88.9617 59.2068C88.508 59.5057 87.9602 59.6551 87.3183 59.6551C86.702 59.6551 86.1499 59.5178 85.662 59.2432C85.1827 58.9685 84.8061 58.5728 84.5322 58.0558C84.2583 57.5389 84.1213 56.929 84.1213 56.2263C84.1213 55.5316 84.2583 54.9258 84.5322 54.4089C84.8061 53.8919 85.1827 53.4961 85.662 53.2215C86.1499 52.9469 86.702 52.8096 87.3183 52.8096ZM87.7676 54.0212C87.1171 54.0212 86.595 54.2191 86.2013 54.6149C85.8161 55.0026 85.6235 55.5397 85.6235 56.2263C85.6235 56.9129 85.8161 57.454 86.2013 57.8498C86.595 58.2376 87.1171 58.4314 87.7676 58.4314C88.1785 58.4314 88.5466 58.3426 88.8718 58.1649C89.1971 57.9791 89.4539 57.7206 89.6422 57.3894C89.8305 57.0583 89.9246 56.6705 89.9246 56.2263C89.9246 55.7901 89.8305 55.4064 89.6422 55.0753C89.4539 54.736 89.1971 54.4775 88.8718 54.2998C88.5466 54.1141 88.1785 54.0212 87.7676 54.0212ZM98.0365 52.8096C98.8668 52.8096 99.5301 53.0115 100.027 53.4154C100.532 53.8112 100.84 54.3443 100.951 55.0147H99.5644C99.5045 54.6512 99.3375 54.3604 99.0636 54.1423C98.7983 53.9162 98.4431 53.8031 97.998 53.8031C97.6299 53.8031 97.3432 53.8879 97.1378 54.0575C96.9409 54.2191 96.8425 54.4412 96.8425 54.7239C96.8425 54.9339 96.9152 55.1035 97.0607 55.2328C97.2063 55.362 97.386 55.463 97.6 55.5357C97.8225 55.6084 98.1349 55.6891 98.5372 55.778C99.0679 55.8911 99.4959 56.0082 99.8212 56.1294C100.155 56.2505 100.437 56.4444 100.669 56.7109C100.908 56.9694 101.028 57.3248 101.028 57.7771C101.028 58.3345 100.801 58.7868 100.348 59.1341C99.9025 59.4815 99.299 59.6551 98.5372 59.6551C97.6556 59.6551 96.9409 59.4613 96.3931 59.0736C95.8539 58.6858 95.5286 58.1447 95.4173 57.45H96.8425C96.8853 57.8135 97.0565 58.1083 97.356 58.3345C97.6556 58.5606 98.0494 58.6737 98.5372 58.6737C98.8882 58.6737 99.1621 58.5889 99.3589 58.4193C99.5644 58.2416 99.6671 58.0195 99.6671 57.7529C99.6671 57.5187 99.59 57.3329 99.436 57.1956C99.2819 57.0583 99.0893 56.9532 98.8582 56.8806C98.6271 56.7998 98.3104 56.719 97.9081 56.6382C97.3946 56.5252 96.9752 56.4121 96.6499 56.299C96.3332 56.1859 96.0593 56.0042 95.8282 55.7538C95.6056 55.4953 95.4944 55.148 95.4944 54.7118C95.4944 54.1464 95.7169 53.69 96.162 53.3427C96.6156 52.9873 97.2405 52.8096 98.0365 52.8096ZM109.018 52.7853C109.84 52.7853 110.499 53.0357 110.996 53.5365C111.492 54.0373 111.74 54.7522 111.74 55.6811V59.5703H110.277V55.8265C110.277 55.2287 110.114 54.7683 109.789 54.4452C109.463 54.1141 109.018 53.9485 108.453 53.9485C107.871 53.9485 107.405 54.1262 107.054 54.4816C106.703 54.8289 106.527 55.3418 106.527 56.0203V59.5703H105.064V50.6044H106.527V54.3604C106.716 53.8596 107.033 53.4719 107.478 53.1973C107.923 52.9227 108.436 52.7853 109.018 52.7853ZM134.414 55.9113C134.414 56.1374 134.397 56.3353 134.363 56.505H128.919C128.945 57.1915 129.146 57.7004 129.523 58.0316C129.899 58.3628 130.366 58.5283 130.922 58.5283C131.41 58.5283 131.821 58.4112 132.155 58.177C132.497 57.9427 132.707 57.6317 132.784 57.244H134.35C134.256 57.7125 134.059 58.1285 133.759 58.492C133.46 58.8555 133.07 59.1422 132.591 59.3522C132.112 59.5542 131.577 59.6551 130.986 59.6551C130.301 59.6551 129.694 59.5178 129.163 59.2432C128.641 58.9685 128.23 58.5728 127.93 58.0558C127.631 57.5389 127.481 56.929 127.481 56.2263C127.481 55.5316 127.631 54.9258 127.93 54.4089C128.23 53.8919 128.641 53.4961 129.163 53.2215C129.694 52.9469 130.301 52.8096 130.986 52.8096C131.68 52.8096 132.283 52.9469 132.797 53.2215C133.319 53.4881 133.717 53.8596 133.991 54.3362C134.273 54.8047 134.414 55.3297 134.414 55.9113ZM132.938 55.8749C132.955 55.4387 132.874 55.0753 132.694 54.7845C132.523 54.4856 132.283 54.2675 131.975 54.1302C131.675 53.9848 131.346 53.9121 130.986 53.9121C130.413 53.9121 129.933 54.0777 129.548 54.4089C129.163 54.7401 128.953 55.2287 128.919 55.8749H132.938ZM141.233 52.8096C141.875 52.8096 142.423 52.959 142.876 53.2579C143.33 53.5567 143.651 53.9525 143.839 54.4452V52.8944H145.303V59.5703H143.839V58.0195C143.651 58.5122 143.33 58.908 142.876 59.2068C142.423 59.5057 141.875 59.6551 141.233 59.6551C140.617 59.6551 140.065 59.5178 139.577 59.2432C139.097 58.9685 138.721 58.5728 138.447 58.0558C138.173 57.5389 138.036 56.929 138.036 56.2263C138.036 55.5316 138.173 54.9258 138.447 54.4089C138.721 53.8919 139.097 53.4961 139.577 53.2215C140.065 52.9469 140.617 52.8096 141.233 52.8096ZM141.682 54.0212C141.032 54.0212 140.51 54.2191 140.116 54.6149C139.731 55.0026 139.538 55.5397 139.538 56.2263C139.538 56.9129 139.731 57.454 140.116 57.8498C140.51 58.2376 141.032 58.4314 141.682 58.4314C142.093 58.4314 142.461 58.3426 142.786 58.1649C143.112 57.9791 143.368 57.7206 143.557 57.3894C143.745 57.0583 143.839 56.6705 143.839 56.2263C143.839 55.7901 143.745 55.4064 143.557 55.0753C143.368 54.736 143.112 54.4775 142.786 54.2998C142.461 54.1141 142.093 54.0212 141.682 54.0212ZM151.091 50.6044V59.5703H149.628V50.6044H151.091Z" fill="white" />
</svg>